<svg aria-hidden="true" style="position: absolute; width: 0; height: 0; overflow: hidden;" version="1.1" xmlns="http://www.w3.org/2000/svg" xmlns:xlink="http://www.w3.org/1999/xlink">
<defs>
<symbol id="icon-check" viewBox="0 0 24 24">
<title>check</title>
<path fill="currentColor" stroke="none" d="M20.7 5.3c-0.4-0.4-1-0.4-1.4 0l-10.3 10.3-4.3-4.3c-0.4-0.4-1-0.4-1.4 0s-0.4 1 0 1.4l5 5c0.2 0.2 0.4 0.3 0.7 0.3s0.5-0.1 0.7-0.3l11-11c0.4-0.4 0.4-1 0-1.4z"></path>
</symbol>
<symbol id="icon-chevron-left" viewBox="0 0 24 24">
<title>chevron-left</title>
<path fill="currentColor" stroke="none" d="M10.4 12l5.3-5.3c0.4-0.4 0.4-1 0-1.4s-1-0.4-1.4 0l-6 6c-0.4 0.4-0.4 1 0 1.4l6 6c0.2 0.2 0.5 0.3 0.7 0.3s0.5-0.1 0.7-0.3c0.4-0.4 0.4-1 0-1.4l-5.3-5.3z"></path>
</symbol>
<symbol id="icon-chevron-right" viewBox="0 0 24 24">
<title>chevron-right</title>
<path fill="currentColor" stroke="none" d="M15.7 11.3l-6-6c-0.4-0.4-1-0.4-1.4 0s-0.4 1 0 1.4l5.3 5.3-5.3 5.3c-0.4 0.4-0.4 1 0 1.4 0.2 0.2 0.4 0.3 0.7 0.3s0.5-0.1 0.7-0.3l6-6c0.4-0.4 0.4-1 0-1.4z"></path>
</symbol>
<symbol id="icon-edit-2" viewBox="0 0 24 24">
<title>edit-2</title>
<path fill="currentColor" stroke="none" d="M21.7 7.3l-5-5c-0.4-0.4-1-0.4-1.4 0l-13 13c-0.2 0.2-0.3 0.4-0.3 0.7v5c0 0.6 0.4 1 1 1h5c0.3 0 0.5-0.1 0.7-0.3l13-13c0.4-0.4 0.4-1 0-1.4zM7.6 20h-3.6v-3.6l12-12 3.6 3.6-12 12z"></path>
</symbol>
<symbol id="icon-github" viewBox="0 0 25 24">
<title>github</title>
<path fill="currentColor" stroke="none" d="M22.5 8.5c0-1.5-0.5-2.8-1.4-4 0.3-1.3 0.2-2.7-0.3-3.9-0.1-0.3-0.3-0.5-0.6-0.6-0.4-0.1-1.7-0.3-4.4 1.4-2.2-0.5-4.5-0.5-6.6 0-2.7-1.7-4-1.5-4.4-1.4-0.3 0.1-0.5 0.3-0.6 0.6-0.6 1.3-0.7 2.6-0.3 3.9-0.9 1.2-1.4 2.6-1.4 4 0 5.4 3 7.1 5.8 7.7-0.2 0.7-0.3 1.3-0.3 1.9v0.1c-2.1 0.4-2.8-0.4-3.6-1.5-0.5-0.7-1.1-1.5-2.2-1.7-0.5-0.1-1.1 0.2-1.2 0.7s0.2 1.1 0.7 1.2c0.3 0.1 0.7 0.5 1.1 1 0.9 1.2 2.2 2.8 5.2 2.4v1.7c0 0.6 0.4 1 1 1s1-0.4 1-1v-2.9c0 0 0-0.1 0-0.1v-0.9c0-0.7 0.2-1.3 0.7-1.8 0.3-0.3 0.4-0.7 0.2-1-0.1-0.4-0.4-0.6-0.8-0.7-2.9-0.4-5.6-1.3-5.6-6 0-1.2 0.4-2.2 1.2-3.1 0.3-0.3 0.3-0.7 0.2-1-0.3-0.9-0.3-1.7-0.1-2.5 0.5 0.1 1.4 0.4 2.6 1.3 0.3 0.2 0.6 0.2 0.9 0.1 2.1-0.6 4.4-0.6 6.5 0 0.3 0.1 0.6 0 0.8-0.1 1.3-0.9 2.2-1.2 2.6-1.3 0.2 0.8 0.2 1.6-0.1 2.4-0.1 0.4-0.1 0.8 0.2 1 0.8 0.8 1.2 1.9 1.2 3.1 0 4.7-2.7 5.7-5.6 6-0.4 0-0.7 0.3-0.8 0.7s0 0.8 0.2 1c0.5 0.5 0.7 1.2 0.7 1.9v3.9c0 0.6 0.4 1 1 1s1-0.4 1-1v-3.8c0.1-0.7 0-1.3-0.3-1.9 2.4-0.5 5.8-2.1 5.8-7.8z"></path>
</symbol>
<symbol id="icon-gitlab" viewBox="0 0 24 24">
<title>gitlab</title>
<path fill="currentColor" stroke="none" d="M23.9 13.1l-3.7-11.2c-0.1-0.2-0.2-0.4-0.4-0.6-0.5-0.5-1.4-0.5-1.9 0-0.2 0.1-0.3 0.3-0.4 0.6l-2.2 6.8h-6.6l-2.2-6.8c-0.1-0.2-0.2-0.4-0.4-0.6-0.5-0.5-1.4-0.5-1.9 0-0.2 0.1-0.3 0.3-0.4 0.6l-3.7 11.2c-0.3 0.8 0 1.6 0.7 2.1l10.6 7.7c0.2 0.1 0.4 0.2 0.6 0.2s0.4-0.1 0.6-0.2l10.6-7.7c0.7-0.4 1-1.3 0.7-2.1zM12 20.9l-10-7.2 3.1-9.5 1.9 5.8c0.1 0.4 0.5 0.7 1 0.7h8c0.4 0 0.8-0.3 1-0.7l1.9-5.8 1.9 5.8 1.2 3.6-10 7.3z"></path>
</symbol>
<symbol id="icon-plus" viewBox="0 0 24 24">
<title>plus</title>
<path fill="currentColor" stroke="none" d="M19 11h-6v-6c0-0.6-0.4-1-1-1s-1 0.4-1 1v6h-6c-0.6 0-1 0.4-1 1s0.4 1 1 1h6v6c0 0.6 0.4 1 1 1s1-0.4 1-1v-6h6c0.6 0 1-0.4 1-1s-0.4-1-1-1z"></path>
</symbol>
<symbol id="icon-user" viewBox="0 0 24 24">
<title>user</title>
<path fill="currentColor" stroke="none" d="M16 14h-8c-2.8 0-5 2.2-5 5v2c0 0.6 0.4 1 1 1s1-0.4 1-1v-2c0-1.7 1.3-3 3-3h8c1.7 0 3 1.3 3 3v2c0 0.6 0.4 1 1 1s1-0.4 1-1v-2c0-2.8-2.2-5-5-5z"></path>
<path fill="currentColor" stroke="none" d="M12 12c2.8 0 5-2.2 5-5s-2.2-5-5-5-5 2.2-5 5 2.2 5 5 5zM12 4c1.7 0 3 1.3 3 3s-1.3 3-3 3-3-1.3-3-3 1.3-3 3-3z"></path>
</symbol>
<symbol id="icon-user-check" viewBox="0 0 24 24">
<title>user-check</title>
<path fill="currentColor" stroke="none" d="M12 14h-7c-2.8 0-5 2.2-5 5v2c0 0.6 0.4 1 1 1s1-0.4 1-1v-2c0-1.7 1.3-3 3-3h7c1.7 0 3 1.3 3 3v2c0 0.6 0.4 1 1 1s1-0.4 1-1v-2c0-2.8-2.2-5-5-5z"></path>
<path fill="currentColor" stroke="none" d="M8.5 12c2.8 0 5-2.2 5-5s-2.2-5-5-5-5 2.2-5 5 2.2 5 5 5zM8.5 4c1.7 0 3 1.3 3 3s-1.3 3-3 3-3-1.3-3-3 1.3-3 3-3z"></path>
<path fill="currentColor" stroke="none" d="M23.7 8.3c-0.4-0.4-1-0.4-1.4 0l-3.3 3.3-1.3-1.3c-0.4-0.4-1-0.4-1.4 0s-0.4 1 0 1.4l2 2c0.2 0.2 0.5 0.3 0.7 0.3s0.5-0.1 0.7-0.3l4-4c0.4-0.4 0.4-1 0-1.4z"></path>
</symbol>
<symbol id="icon-user-minus" viewBox="0 0 24 24">
<title>user-minus</title>
<path fill="currentColor" stroke="none" d="M12 14h-7c-2.8 0-5 2.2-5 5v2c0 0.6 0.4 1 1 1s1-0.4 1-1v-2c0-1.7 1.3-3 3-3h7c1.7 0 3 1.3 3 3v2c0 0.6 0.4 1 1 1s1-0.4 1-1v-2c0-2.8-2.2-5-5-5z"></path>
<path fill="currentColor" stroke="none" d="M8.5 12c2.8 0 5-2.2 5-5s-2.2-5-5-5-5 2.2-5 5 2.2 5 5 5zM8.5 4c1.7 0 3 1.3 3 3s-1.3 3-3 3-3-1.3-3-3 1.3-3 3-3z"></path>
<path fill="currentColor" stroke="none" d="M23 10h-6c-0.6 0-1 0.4-1 1s0.4 1 1 1h6c0.6 0 1-0.4 1-1s-0.4-1-1-1z"></path>
</symbol>
<symbol id="icon-user-plus" viewBox="0 0 24 24">
<title>user-plus</title>
<path fill="currentColor" stroke="none" d="M12 14h-7c-2.8 0-5 2.2-5 5v2c0 0.6 0.4 1 1 1s1-0.4 1-1v-2c0-1.7 1.3-3 3-3h7c1.7 0 3 1.3 3 3v2c0 0.6 0.4 1 1 1s1-0.4 1-1v-2c0-2.8-2.2-5-5-5z"></path>
<path fill="currentColor" stroke="none" d="M8.5 12c2.8 0 5-2.2 5-5s-2.2-5-5-5-5 2.2-5 5 2.2 5 5 5zM8.5 4c1.7 0 3 1.3 3 3s-1.3 3-3 3-3-1.3-3-3 1.3-3 3-3z"></path>
<path fill="currentColor" stroke="none" d="M23 10h-2v-2c0-0.6-0.4-1-1-1s-1 0.4-1 1v2h-2c-0.6 0-1 0.4-1 1s0.4 1 1 1h2v2c0 0.6 0.4 1 1 1s1-0.4 1-1v-2h2c0.6 0 1-0.4 1-1s-0.4-1-1-1z"></path>
</symbol>
<symbol id="icon-user-x" viewBox="0 0 24 24">
<title>user-x</title>
<path fill="currentColor" stroke="none" d="M12 14h-7c-2.8 0-5 2.2-5 5v2c0 0.6 0.4 1 1 1s1-0.4 1-1v-2c0-1.7 1.3-3 3-3h7c1.7 0 3 1.3 3 3v2c0 0.6 0.4 1 1 1s1-0.4 1-1v-2c0-2.8-2.2-5-5-5z"></path>
<path fill="currentColor" stroke="none" d="M8.5 12c2.8 0 5-2.2 5-5s-2.2-5-5-5-5 2.2-5 5 2.2 5 5 5zM8.5 4c1.7 0 3 1.3 3 3s-1.3 3-3 3-3-1.3-3-3 1.3-3 3-3z"></path>
<path fill="currentColor" stroke="none" d="M21.9 10.5l1.8-1.8c0.4-0.4 0.4-1 0-1.4s-1-0.4-1.4 0l-1.8 1.8-1.8-1.8c-0.4-0.4-1-0.4-1.4 0s-0.4 1 0 1.4l1.8 1.8-1.8 1.8c-0.4 0.4-0.4 1 0 1.4 0.2 0.2 0.5 0.3 0.7 0.3s0.5-0.1 0.7-0.3l1.8-1.8 1.8 1.8c0.2 0.2 0.5 0.3 0.7 0.3s0.5-0.1 0.7-0.3c0.4-0.4 0.4-1 0-1.4l-1.8-1.8z"></path>
</symbol>
<symbol id="icon-x" viewBox="0 0 24 24">
<title>x</title>
<path fill="currentColor" stroke="none" d="M13.4 12l5.3-5.3c0.4-0.4 0.4-1 0-1.4s-1-0.4-1.4 0l-5.3 5.3-5.3-5.3c-0.4-0.4-1-0.4-1.4 0s-0.4 1 0 1.4l5.3 5.3-5.3 5.3c-0.4 0.4-0.4 1 0 1.4 0.2 0.2 0.4 0.3 0.7 0.3s0.5-0.1 0.7-0.3l5.3-5.3 5.3 5.3c0.2 0.2 0.5 0.3 0.7 0.3s0.5-0.1 0.7-0.3c0.4-0.4 0.4-1 0-1.4l-5.3-5.3z"></path>
</symbol>
<symbol id="icon-development" viewBox="0 0 32 32">
<title>development</title>
<path fill="currentColor" d="M26.5 16c0 5.799-4.701 10.5-10.5 10.5s-10.5-4.701-10.5-10.5c0-5.799 4.701-10.5 10.5-10.5s10.5 4.701 10.5 10.5z"></path>
<path fill="currentColor" d="M10.781 21.616v0zM19.556 25.882c0-0.076 0.001-0.155 0.002-0.242 0.004-0.616 0.011-1.546 0.011-2.439 0-0.501-0.080-0.925-0.207-1.273-0.095-0.258-0.216-0.475-0.351-0.652 1.153-0.161 2.308-0.49 3.21-1.244 1.002-0.839 1.68-2.19 1.68-4.394 0-0.614-0.106-1.175-0.301-1.683-0.192-0.501-0.47-0.95-0.817-1.347 0.066-0.189 0.158-0.518 0.187-0.953 0.035-0.532-0.023-1.226-0.34-2.024l-0.033-0.084-0.087-0.026c-0.003-0.001-0.995-0.318-3.147 1.119-0.424-0.114-0.861-0.2-1.304-0.26-0.479-0.064-0.966-0.097-1.453-0.1h-0.001c-0.487 0.002-0.975 0.035-1.454 0.1-0.443 0.060-0.879 0.146-1.302 0.26-1.071-0.715-1.846-0.995-2.352-1.098-0.26-0.053-0.453-0.059-0.58-0.053-0.193 0.010-0.33 0.126-0.331 0.127l-0.007 0.015c-0.315 0.797-0.373 1.492-0.338 2.025 0.029 0.436 0.121 0.765 0.188 0.954-0.347 0.398-0.626 0.847-0.819 1.349-0.194 0.506-0.301 1.066-0.301 1.681h-0.001c0 2.198 0.678 3.55 1.677 4.392 0.901 0.758 2.054 1.092 3.205 1.255-0.090 0.118-0.173 0.254-0.246 0.409-0.109 0.229-0.196 0.5-0.249 0.812-0.381 0.158-1.027 0.343-1.668 0.16-0.441-0.126-0.886-0.431-1.247-1.050-0.034-0.061-0.667-1.157-1.855-1.24h-0.012c-0.005-0-1.701-0.022-0.182 1.017l0.025 0.014c0.002 0.001 0.661 0.31 1.141 1.522 0.029 0.091 0.732 2.208 3.746 1.661 0.003 0.401 0.006 0.751 0.009 1.032 0.002 0.242 0.004 0.424 0.004 0.616 0.754 0.172 1.538 0.263 2.343 0.263 1.248 0 2.445-0.218 3.556-0.618zM10.253 22.005c0.079 0.008 0.138 0.073 0.13 0.144s-0.078 0.123-0.157 0.115c-0.079-0.008-0.138-0.073-0.13-0.144s0.078-0.123 0.157-0.115zM10.552 22.776c0.007-0.072 0.078-0.123 0.157-0.115s0.138 0.073 0.13 0.144c-0.007 0.072-0.078 0.123-0.157 0.115s-0.138-0.073-0.13-0.144zM9.516 21.001c0.079 0.008 0.138 0.073 0.13 0.144s-0.078 0.123-0.157 0.115c-0.079-0.008-0.138-0.073-0.13-0.144s0.078-0.123 0.157-0.115zM9.899 21.429c0.079 0.008 0.138 0.073 0.13 0.144s-0.078 0.123-0.157 0.115c-0.079-0.008-0.138-0.073-0.13-0.144s0.078-0.123 0.157-0.115zM11.324 23.114c0.079 0.008 0.138 0.073 0.13 0.144s-0.078 0.123-0.157 0.115c-0.079-0.008-0.138-0.073-0.13-0.144s0.078-0.123 0.157-0.115zM12.209 23.355c0.079 0.008 0.138 0.073 0.13 0.144s-0.078 0.123-0.157 0.115c-0.079-0.008-0.138-0.073-0.13-0.144s0.078-0.123 0.157-0.115zM13.027 23.288c0.079 0.008 0.138 0.073 0.13 0.144s-0.078 0.123-0.157 0.115c-0.079-0.008-0.138-0.073-0.13-0.144s0.078-0.123 0.157-0.115z"></path>
</symbol>
</defs>
</svg>
